<svg fill="none" height="361" viewBox="0 0 422 361" width="422" xmlns="http://www.w3.org/2000/svg"><g stroke="#e3e3e3"><path d="m241 .5h-60v60h60z"/><path d="m301 .5h-60v60h60z"/><path d="m361 .5h-60v60h60z"/><path d="m121 60.5h-60v60h60z"/><path d="m241 60.5h-60v60h60z"/><path d="m301 60.5h-60v60h60z"/><path d="m361 60.5h-60v60h60z"/><path d="m61 120.5h-60v60h60z"/><path d="m121 120.5h-60v60h60z"/><path d="m181 120.5h-60v60h60z"/><path d="m241 120.5h-60v60h60z"/><path d="m301 120.5h-60v60h60z"/><path d="m361 120.5h-60v60h60z"/><path d="m421 120.5h-60v60h60z"/><path d="m61 180.5h-60v60h60z"/><path d="m121 180.5h-60v60h60z"/><path d="m181 180.5h-60v60h60z"/><path d="m241 180.5h-60v60h60z"/><path d="m301 180.5h-60v60h60z"/><path d="m361 180.5h-60v60h60z"/><path d="m301 240.5h-60v60h60z"/><path d="m301 300.5h-60v60h60z"/><path d="m361 240.5h-60v60h60z"/></g><path d="m361 60.5h-120v120h120z" fill="#003740"/><path d="m301 153.84c17.491 0 31.67-14.179 31.67-31.67s-14.179-31.67-31.67-31.67-31.67 14.179-31.67 31.67 14.179 31.67 31.67 31.67z" fill="#c7e8d7"/><path clip-rule="evenodd" d="m308.733 91.4509c-.061-.0006-.122-.0009-.183-.0009-13.321 0-24.12 13.754-24.12 30.72s10.799 30.72 24.12 30.72c.061 0 .122 0 .183-.001 13.722-3.443 23.891-15.839 23.937-30.618 0-.034 0-.067 0-.101s0-.067 0-.101c-.046-14.779-10.215-27.1748-23.937-30.6181z" fill="#80cb93" fill-rule="evenodd"/><path d="m181 120.5h-120v120h120z" fill="#3b6385"/><path d="m119.33 213.84c17.491 0 31.67-14.179 31.67-31.67s-14.179-31.67-31.67-31.67-31.67 14.179-31.67 31.67 14.179 31.67 31.67 31.67z" fill="#c7e8d7"/><path d="m119.91 229.63 5.17-8.87-10.26-.04z" fill="#80cb93"/><path d="m96.1 223.56 8.91-5.1-8.87-5.16z" fill="#80cb93"/><path d="m78.52 206.4 10.26.04-5.1-8.91z" fill="#80cb93"/><path d="m71.87 182.75 8.87 5.16.04-10.26z" fill="#80cb93"/><path d="m77.9399 158.94 5.1 8.9 5.16-8.87z" fill="#80cb93"/><path d="m95.1001 141.35-.04 10.26 8.9099-5.1z" fill="#80cb93"/><path d="m118.75 134.7-5.16 8.87 10.26.04z" fill="#80cb93"/><path d="m142.56 140.77-8.9 5.1 8.87 5.16z" fill="#80cb93"/><path d="m160.15 157.93-10.26-.03 5.1 8.9z" fill="#80cb93"/><path d="m166.8 181.59-8.87-5.17-.04 10.27z" fill="#80cb93"/><path d="m160.73 205.4-5.1-8.91-5.16 8.87z" fill="#80cb93"/><path d="m143.57 222.98.03-10.26-8.9 5.1z" fill="#80cb93"/><path d="m241 120.5h-60v60h60z" fill="#c7e8d7"/><path d="m229 150.5c0-4.774-1.896-9.352-5.272-12.728s-7.954-5.272-12.728-5.272v36c4.774 0 9.352-1.896 12.728-5.272s5.272-7.954 5.272-12.728z" fill="#008647"/><path d="m193 150.5c0 4.774 1.896 9.352 5.272 12.728s7.954 5.272 12.728 5.272v-36c-4.774 0-9.352 1.896-12.728 5.272s-5.272 7.954-5.272 12.728z" fill="#04aa51"/><path d="m211.43 143.55v9.45h4.71" stroke="#fff" stroke-linecap="round" stroke-linejoin="round" stroke-width="2"/><path d="m395 199.82h-8c-1.105 0-2 .895-2 2v8c0 1.105.895 2 2 2h8c1.105 0 2-.895 2-2v-8c0-1.105-.895-2-2-2z" stroke="#04aa51" stroke-width="2"/><path d="m395 226.95h-8c-1.105 0-2 .895-2 2v8c0 1.105.895 2 2 2h8c1.105 0 2-.895 2-2v-8c0-1.105-.895-2-2-2z" stroke="#04aa51" stroke-width="2"/><path d="m395 254.09h-8c-1.105 0-2 .895-2 2v8c0 1.105.895 2 2 2h8c1.105 0 2-.895 2-2v-8c0-1.105-.895-2-2-2z" stroke="#04aa51" stroke-width="2"/><path d="m241 180.5h-60v60h60z" fill="#04aa51"/><path d="m229 180.5c0 12.73-5.057 24.939-14.059 33.941s-21.211 14.059-33.941 14.059" stroke="#c7e8d7" stroke-width="2"/><path d="m211 180.5c0 7.956-3.161 15.587-8.787 21.213s-13.257 8.787-21.213 8.787" stroke="#c7e8d7" stroke-width="2"/><path d="m193 180.5c0 3.183-1.264 6.235-3.515 8.485-2.25 2.251-5.302 3.515-8.485 3.515" stroke="#c7e8d7" stroke-width="2"/><path d="m241 60.5h-60v60h60z" fill="#008647"/><path d="m193 120.5c0-12.73 5.057-24.9394 14.059-33.9411 9.002-9.0018 21.211-14.0589 33.941-14.0589" stroke="#c7e8d7" stroke-width="2"/><path d="m211 120.5c0-7.956 3.161-15.587 8.787-21.2132 5.626-5.6261 13.257-8.7868 21.213-8.7868" stroke="#c7e8d7" stroke-width="2"/><path d="m229 120.5c0-3.183 1.264-6.235 3.515-8.485 2.25-2.251 5.302-3.515 8.485-3.515" stroke="#c7e8d7" stroke-width="2"/><path d="m342.26 199.82h-77.43c-3.314 0-6 2.686-6 6v105.82c0 3.314 2.686 6 6 6h77.43c3.314 0 6-2.686 6-6v-105.82c0-3.314-2.686-6-6-6z" fill="#c7e8d7"/><path d="m336 224.26c.663 0 1.299.263 1.768.732s.732 1.105.732 1.768v78.64c0 .663-.263 1.299-.732 1.768s-1.105.732-1.768.732-1.299-.263-1.768-.732-.732-1.105-.732-1.768v-78.64c0-.663.263-1.299.732-1.768s1.105-.732 1.768-.732z" fill="#04aa51"/><path d="m336 246.76c.663 0 1.299.263 1.768.732s.732 1.105.732 1.768v56.14c0 .663-.263 1.299-.732 1.768s-1.105.732-1.768.732-1.299-.263-1.768-.732-.732-1.105-.732-1.768v-56.14c0-.663.263-1.299.732-1.768s1.105-.732 1.768-.732z" fill="#003740"/><path d="m273.54 226.73h45.1" stroke="#80cb93" stroke-width="2"/><path d="m273.54 239.32h45.1" stroke="#80cb93" stroke-width="2"/><path d="m273.54 251.91h45.1" stroke="#80cb93" stroke-width="2"/><path d="m273.54 264.5h45.1" stroke="#80cb93" stroke-width="2"/><path d="m273.54 277.09h45.1" stroke="#80cb93" stroke-width="2"/><path d="m273.54 289.67h45.1" stroke="#80cb93" stroke-width="2"/><path d="m273.54 302.26h45.1" stroke="#80cb93" stroke-width="2"/><path d="m264.83 199.82h77.43c1.591 0 3.117.632 4.243 1.757 1.125 1.126 1.757 2.652 1.757 4.243v9.93h-89.43v-9.93c0-1.591.632-3.117 1.757-4.243 1.126-1.125 2.652-1.757 4.243-1.757z" fill="#80cb93"/><path d="m336 210.94 3.68-3.68h-7.36z" fill="#008647"/><path d="m126.59 189.34-7.17-7.17-3.59 3.58" stroke="#80cb93" stroke-linecap="round" stroke-linejoin="round" stroke-width="2"/><path d="m302.05 148.33v-2.17" stroke="#003740" stroke-linecap="round" stroke-linejoin="round" stroke-width="2"/><path d="m288.83 145.36 1.08-1.88" stroke="#003740" stroke-linecap="round" stroke-linejoin="round" stroke-width="2"/><path d="m278.86 136.16 1.89-1.08" stroke="#003740" stroke-linecap="round" stroke-linejoin="round" stroke-width="2"/><path d="m274.83 123.22h2.17" stroke="#003740" stroke-linecap="round" stroke-linejoin="round" stroke-width="2"/><path d="m277.81 109.99 1.88 1.09" stroke="#003740" stroke-linecap="round" stroke-linejoin="round" stroke-width="2"/><path d="m287 100.03 1.09 1.88" stroke="#003740" stroke-linecap="round" stroke-linejoin="round" stroke-width="2"/><path d="m299.95 96v2.17" stroke="#003740" stroke-linecap="round" stroke-linejoin="round" stroke-width="2"/><path d="m313.17 98.98-1.08 1.88" stroke="#003740" stroke-linecap="round" stroke-linejoin="round" stroke-width="2"/><path d="m323.14 108.17-1.89 1.09" stroke="#003740" stroke-linecap="round" stroke-linejoin="round" stroke-width="2"/><path d="m327.17 121.11h-2.17" stroke="#003740" stroke-linecap="round" stroke-linejoin="round" stroke-width="2"/><path d="m324.19 134.34-1.88-1.09" stroke="#003740" stroke-linecap="round" stroke-linejoin="round" stroke-width="2"/><path d="m315 144.3-1.09-1.88" stroke="#003740" stroke-linecap="round" stroke-linejoin="round" stroke-width="2"/><path d="m295.2 122.17h4.71v-9.43" stroke="#003740" stroke-linecap="round" stroke-linejoin="round" stroke-width="2"/><path d="m32.0699 268.03h-8c-1.1045 0-2 .895-2 2v8c0 1.105.8955 2 2 2h8c1.1046 0 2-.895 2-2v-8c0-1.105-.8954-2-2-2z" fill="#04aa51" stroke="#04aa51" stroke-width="2"/><path d="m91.04 268.03h-8c-1.1045 0-2 .895-2 2v8c0 1.105.8955 2 2 2h8c1.1046 0 2-.895 2-2v-8c0-1.105-.8954-2-2-2z" stroke="#04aa51" stroke-width="2"/><path d="m120.52 268.03h-8c-1.105 0-2 .895-2 2v8c0 1.105.895 2 2 2h8c1.105 0 2-.895 2-2v-8c0-1.105-.895-2-2-2z" stroke="#04aa51" stroke-width="2"/><path d="m150.01 268.03h-8c-1.105 0-2 .895-2 2v8c0 1.105.895 2 2 2h8c1.105 0 2-.895 2-2v-8c0-1.105-.895-2-2-2z" stroke="#04aa51" stroke-width="2"/><path d="m33.06 270.81-6.9 6.9-3.02-3.02" stroke="#fff" stroke-linecap="round" stroke-linejoin="round"/><path d="m61.5601 268.03h-8c-1.1046 0-2 .895-2 2v8c0 1.105.8954 2 2 2h8c1.1045 0 2-.895 2-2v-8c0-1.105-.8955-2-2-2z" fill="#04aa51" stroke="#04aa51" stroke-width="2"/><path d="m62.55 270.81-6.91 6.9-3.02-3.02" stroke="#fff" stroke-linecap="round" stroke-linejoin="round"/><path d="m178.8 268.03h-8c-1.105 0-2 .895-2 2v8c0 1.105.895 2 2 2h8c1.105 0 2-.895 2-2v-8c0-1.105-.895-2-2-2z" fill="#04aa51" stroke="#04aa51" stroke-width="2"/><path d="m179.79 270.81-6.9 6.9-3.02-3.02" stroke="#fff" stroke-linecap="round" stroke-linejoin="round"/><path d="m207.59 268.03h-8c-1.105 0-2 .895-2 2v8c0 1.105.895 2 2 2h8c1.105 0 2-.895 2-2v-8c0-1.105-.895-2-2-2z" fill="#04aa51" stroke="#04aa51" stroke-width="2"/><path d="m208.58 270.81-6.9 6.9-3.02-3.02" stroke="#fff" stroke-linecap="round" stroke-linejoin="round"/><path d="m105.65 75.26h-89.3001c-2.0158 0-3.6499 1.6342-3.6499 3.65v23.02c0 2.016 1.6341 3.65 3.6499 3.65h89.3001c2.016 0 3.65-1.634 3.65-3.65v-23.02c0-2.0158-1.634-3.65-3.65-3.65z" fill="#04aa51"/><path d="m42.13 90.42h41.3" stroke="#fff" stroke-width="2"/><path d="m29.3078 92.8553h-2.2768l-.3586-8.2981h2.994zm-2.7188 2.5854c0-.4114.1473-.7478.442-1.0091.3002-.2669.6727-.4003 1.1175-.4003s.8146.1334 1.1092.4003c.3003.2613.4504.5977.4504 1.0091s-.1501.7506-.4504 1.0174c-.2946.2614-.6644.392-1.1092.392s-.8173-.1306-1.1175-.392c-.2947-.2668-.442-.606-.442-1.0174z" fill="#fff"/><path d="m154.58 65.33h-8c-1.105 0-2 .8954-2 2v8c0 1.1046.895 2 2 2h8c1.105 0 2-.8954 2-2v-8c0-1.1046-.895-2-2-2z" fill="#04aa51" stroke="#04aa51" stroke-width="2"/><path d="m155.58 68.11-6.91 6.9-3.02-3.02" stroke="#fff" stroke-linecap="round" stroke-linejoin="round"/><path d="m154.58 40.25h-8c-1.105 0-2 .8954-2 2v8c0 1.1046.895 2 2 2h8c1.105 0 2-.8954 2-2v-8c0-1.1046-.895-2-2-2z" stroke="#04aa51" stroke-width="2"/><path d="m154.58 90.42h-8c-1.105 0-2 .8954-2 2v8c0 1.105.895 2 2 2h8c1.105 0 2-.895 2-2v-8c0-1.1046-.895-2-2-2z" fill="#04aa51" stroke="#04aa51" stroke-width="2"/><path d="m155.58 93.2-6.91 6.9-3.02-3.02" stroke="#fff" stroke-linecap="round" stroke-linejoin="round"/></svg>